<svg width="22" height="30" viewBox="0 0 22 30" fill="none" xmlns="http://www.w3.org/2000/svg">
<path d="M11.2416 0C10.5607 0 9.865 0.0631581 9.16928 0.221053C5.08375 1.05789 1.82717 4.57895 1.05744 8.93684C0.346909 13.0579 1.76796 16.8474 4.34362 19.2947C4.98013 19.8947 5.32059 20.7316 5.32059 21.6158V25.2632C5.32059 27 6.65283 28.4211 8.28112 28.4211H8.69559C9.21368 29.3684 10.1463 30 11.2416 30C12.337 30 13.2844 29.3684 13.7877 28.4211H14.2022C15.8305 28.4211 17.1627 27 17.1627 25.2632V21.6158C17.1627 20.7474 17.4884 19.8947 18.1101 19.3105C20.2564 17.2895 21.6035 14.3368 21.6035 11.0526C21.6035 4.94211 16.9703 0 11.2416 0ZM14.2022 25.2632H8.28112V23.6842H14.2022V25.2632ZM14.2022 22.1053H8.28112V20.5263H14.2022V22.1053ZM11.9818 13.2789V17.3684H10.5015V13.2789L7.79263 10.4053L8.84362 9.28421L11.2416 11.8421L13.6397 9.28421L14.6907 10.4053L11.9818 13.2789Z" fill="#F7FBFC"/>
</svg>
