<svg width="29" height="30" viewBox="0 0 29 30" fill="none" xmlns="http://www.w3.org/2000/svg">
<path d="M25.3125 16.5V4.245C25.3125 1.905 23.5266 0 21.3328 0C20.2781 0 19.2656 0.45 18.5203 1.245L16.7625 3.12C16.5375 3.045 16.2984 3 16.0453 3C15.4828 3 14.9625 3.18 14.5266 3.48L18.4078 7.62C18.6891 7.155 18.8578 6.6 18.8578 6C18.8578 5.73 18.8156 5.49 18.7594 5.235L20.5172 3.36C20.7281 3.135 21.0234 3 21.3328 3C21.9797 3 22.5 3.555 22.5 4.245V16.5H12.8672C12.4453 16.185 12.0656 15.825 11.7141 15.42L9.74531 13.095C9.47813 12.78 9.14062 12.525 8.775 12.345C8.33906 12.12 7.86094 12 7.36875 12C5.625 12.015 4.21875 13.515 4.21875 15.375V16.5H0V25.5C0 27.15 1.26562 28.5 2.8125 28.5C2.8125 29.325 3.44531 30 4.21875 30H23.9062C24.6797 30 25.3125 29.325 25.3125 28.5C26.8594 28.5 28.125 27.15 28.125 25.5V16.5H25.3125Z" fill="#F7FBFC"/>
</svg>
