<svg width="24" height="19" viewBox="0 0 24 19" fill="none" xmlns="http://www.w3.org/2000/svg">
<path d="M22.3342 12.934C20.7363 12.934 19.2024 12.7271 17.7707 12.3442C17.3233 12.2304 16.8247 12.3132 16.4668 12.5926L13.6546 14.869C10.037 13.379 7.07133 10.9887 5.23058 8.05014L8.04284 5.7634C8.40076 5.49437 8.50302 5.09083 8.36241 4.72868C7.88944 3.56979 7.63378 2.32812 7.63378 1.03472C7.63378 0.465625 7.05855 0 6.35548 0H1.88145C1.17838 0 0.603149 0.465625 0.603149 1.03472C0.603149 10.7508 10.331 18.625 22.3342 18.625C23.0373 18.625 23.6125 18.1594 23.6125 17.5903V13.9688C23.6125 13.3997 23.0373 12.934 22.3342 12.934ZM21.0559 9.3125H23.6125C23.6125 4.16993 18.461 0 12.1078 0V2.06944C17.0548 2.06944 21.0559 5.30813 21.0559 9.3125ZM15.9427 9.3125H18.4993C18.4993 6.45667 15.6359 4.13889 12.1078 4.13889V6.20833C14.2298 6.20833 15.9427 7.59486 15.9427 9.3125Z" fill="#323232"/>
</svg>
