<svg width="39" height="30" viewBox="0 0 39 30" fill="none" xmlns="http://www.w3.org/2000/svg">
<path d="M0 8.57143H8.03572V0H0V8.57143ZM0 19.2857H8.03572V10.7143H0V19.2857ZM10.0446 19.2857H18.0804V10.7143H10.0446V19.2857ZM20.0893 19.2857H28.125V10.7143H20.0893V19.2857ZM10.0446 8.57143H18.0804V0H10.0446V8.57143ZM20.0893 0V8.57143H28.125V0H20.0893ZM30.1339 19.2857H38.1696V10.7143H30.1339V19.2857ZM0 30H8.03572V21.4286H0V30ZM10.0446 30H18.0804V21.4286H10.0446V30ZM20.0893 30H28.125V21.4286H20.0893V30ZM30.1339 30H38.1696V21.4286H30.1339V30ZM30.1339 0V8.57143H38.1696V0H30.1339Z" fill="#F7FBFC"/>
</svg>
