<svg width="32" height="30" viewBox="0 0 32 30" fill="none" xmlns="http://www.w3.org/2000/svg">
<path d="M2.51553 26.6842L4.49908 27.5684V13.3105L0.902039 22.5632C0.295131 24.1737 1.02046 26.0211 2.51553 26.6842ZM31.3807 20.8421L24.0386 1.94211C23.5797 0.757895 22.4991 0.0315789 21.3593 0C20.9744 0 20.5747 0.0631581 20.1899 0.236842L9.28033 5.05263C8.17013 5.54211 7.48921 6.67895 7.4596 7.89474C7.4448 8.32105 7.51882 8.74737 7.68164 9.1579L15.0237 28.0579C15.4826 29.2579 16.578 29.9842 17.7326 30C18.1175 30 18.5024 29.9211 18.8724 29.7632L29.7672 24.9474C31.277 24.2842 32.0024 22.4368 31.3807 20.8421ZM10.4349 9.47368C9.62079 9.47368 8.95467 8.76316 8.95467 7.89474C8.95467 7.02632 9.62079 6.31579 10.4349 6.31579C11.2491 6.31579 11.9152 7.02632 11.9152 7.89474C11.9152 8.76316 11.2491 9.47368 10.4349 9.47368ZM7.47441 26.8421C7.47441 28.5789 8.80664 30 10.4349 30H12.5813L7.47441 16.8316V26.8421Z" fill="#F7FBFC"/>
</svg>
