<svg width="30" height="30" viewBox="0 0 30 30" fill="none" xmlns="http://www.w3.org/2000/svg">
<path d="M24.0397 11.949C26.9663 11.949 29.347 9.40962 29.347 6.28791C29.347 5.34978 29.1044 4.47634 28.7253 3.69996L24.6311 8.06712L22.3717 5.6571L26.4659 1.28993C25.738 0.885564 24.9192 0.626769 24.0397 0.626769C21.1131 0.626769 18.7324 3.16619 18.7324 6.28791C18.7324 6.95107 18.8537 7.58188 19.0508 8.16417L16.2455 11.1565L13.5464 8.2774L14.623 7.12899L12.4849 4.84836L15.6996 1.41933C13.9255 -0.47311 11.0444 -0.47311 9.27019 1.41933L3.90222 7.14517L6.04031 9.4258H1.76413L0.6875 10.5742L6.05547 16.3L7.1321 15.1516V10.5742L9.27019 12.8548L10.3468 11.7064L13.046 14.5855L1.80962 26.571L5.02434 30L22.2807 11.6094C22.8266 11.8197 23.418 11.949 24.0397 11.949Z" fill="#F7FBFC"/>
<path d="M20.4325 15.184L17.2158 18.6151L26.3083 28.3138L29.525 24.8827L20.4325 15.184Z" fill="#F7FBFC"/>
</svg>
